<svg width="123" height="40" viewBox="0 0 123 40" fill="none" xmlns="http://www.w3.org/2000/svg">
<path d="M18.4689 9.12348V13.4469H12.5992V31.2769H7.20288V13.4469H1.33319V9.12348H18.4689ZM26.5735 16.6026C27.2047 15.6348 27.9936 14.8775 28.9403 14.3305C29.8871 13.7624 30.939 13.4784 32.0961 13.4784V19.1903H30.6129C29.2664 19.1903 28.2566 19.4849 27.5834 20.0739C26.9101 20.642 26.5735 21.6518 26.5735 23.1035V31.2769H21.1772V13.6678H26.5735V16.6026ZM33.6025 22.4408C33.6025 20.6315 33.9391 19.0431 34.6123 17.6756C35.3066 16.3081 36.2428 15.2562 37.4209 14.5198C38.5991 13.7835 39.914 13.4153 41.3656 13.4153C42.6069 13.4153 43.6904 13.6678 44.616 14.1727C45.5628 14.6776 46.2886 15.3403 46.7935 16.1608V13.6678H52.1898V31.2769H46.7935V28.7838C46.2676 29.6043 45.5312 30.267 44.5845 30.7719C43.6588 31.2769 42.5753 31.5293 41.3341 31.5293C39.9035 31.5293 38.5991 31.1611 37.4209 30.4248C36.2428 29.6674 35.3066 28.605 34.6123 27.2375C33.9391 25.849 33.6025 24.25 33.6025 22.4408ZM46.7935 22.4723C46.7935 21.1259 46.4148 20.0634 45.6574 19.285C44.9211 18.5066 44.0165 18.1174 42.9435 18.1174C41.8705 18.1174 40.9554 18.5066 40.198 19.285C39.4616 20.0424 39.0935 21.0943 39.0935 22.4408C39.0935 23.7872 39.4616 24.8602 40.198 25.6596C40.9554 26.438 41.8705 26.8272 42.9435 26.8272C44.0165 26.8272 44.9211 26.438 45.6574 25.6596C46.4148 24.8812 46.7935 23.8188 46.7935 22.4723ZM64.0148 26.2277L67.8333 13.6678H73.5767L67.3283 31.2769H60.6697L54.4213 13.6678H60.1963L64.0148 26.2277ZM81.2445 7.92429V31.2769H75.8481V7.92429H81.2445ZM93.1707 31.5293C91.4456 31.5293 89.8887 31.1611 88.5002 30.4248C87.1327 29.6885 86.0493 28.6365 85.2498 27.2691C84.4714 25.9016 84.0822 24.3026 84.0822 22.4723C84.0822 20.663 84.4819 19.0746 85.2814 17.7071C86.0808 16.3186 87.1748 15.2562 88.5633 14.5198C89.9519 13.7835 91.5087 13.4153 93.2338 13.4153C94.959 13.4153 96.5158 13.7835 97.9044 14.5198C99.2929 15.2562 100.387 16.3186 101.186 17.7071C101.986 19.0746 102.386 20.663 102.386 22.4723C102.386 24.2816 101.975 25.8805 101.155 27.2691C100.355 28.6365 99.2508 29.6885 97.8412 30.4248C96.4527 31.1611 94.8959 31.5293 93.1707 31.5293ZM93.1707 26.8588C94.2016 26.8588 95.0747 26.4801 95.79 25.7227C96.5263 24.9654 96.8945 23.8819 96.8945 22.4723C96.8945 21.0627 96.5369 19.9793 95.8216 19.2219C95.1273 18.4645 94.2647 18.0858 93.2338 18.0858C92.1819 18.0858 91.3088 18.4645 90.6146 19.2219C89.9203 19.9582 89.5732 21.0417 89.5732 22.4723C89.5732 23.8819 89.9098 24.9654 90.583 25.7227C91.2773 26.4801 92.1399 26.8588 93.1707 26.8588ZM111.939 13.4153C113.18 13.4153 114.263 13.6678 115.189 14.1727C116.136 14.6776 116.862 15.3403 117.366 16.1608V13.6678H122.763V31.2453C122.763 32.8653 122.437 34.3274 121.785 35.6318C121.153 36.9572 120.175 38.0091 118.85 38.7875C117.545 39.566 115.915 39.9552 113.958 39.9552C111.35 39.9552 109.235 39.3345 107.615 38.0933C105.995 36.8731 105.07 35.211 104.838 33.1072H110.171C110.34 33.7804 110.739 34.3064 111.371 34.6851C112.002 35.0848 112.78 35.2847 113.706 35.2847C114.821 35.2847 115.704 34.9586 116.357 34.3064C117.03 33.6752 117.366 32.6549 117.366 31.2453V28.7523C116.841 29.5727 116.115 30.246 115.189 30.7719C114.263 31.2769 113.18 31.5293 111.939 31.5293C110.487 31.5293 109.172 31.1611 107.994 30.4248C106.816 29.6674 105.88 28.605 105.185 27.2375C104.512 25.849 104.175 24.25 104.175 22.4408C104.175 20.6315 104.512 19.0431 105.185 17.6756C105.88 16.3081 106.816 15.2562 107.994 14.5198C109.172 13.7835 110.487 13.4153 111.939 13.4153ZM117.366 22.4723C117.366 21.1259 116.988 20.0634 116.23 19.285C115.494 18.5066 114.589 18.1174 113.516 18.1174C112.443 18.1174 111.528 18.5066 110.771 19.285C110.035 20.0424 109.666 21.0943 109.666 22.4408C109.666 23.7872 110.035 24.8602 110.771 25.6596C111.528 26.438 112.443 26.8272 113.516 26.8272C114.589 26.8272 115.494 26.438 116.23 25.6596C116.988 24.8812 117.366 23.8188 117.366 22.4723Z" fill="url(#paint0_linear_0_149)"/>
<defs>
<linearGradient id="paint0_linear_0_149" x1="63.0758" y1="0.276858" x2="33.0125" y2="39.5461" gradientUnits="userSpaceOnUse">
<stop stop-color="#F85E9F"/>
<stop offset="1" stop-color="#5D50C6"/>
</linearGradient>
</defs>
</svg>
