<svg width="223" height="314" viewBox="0 0 223 314" fill="none" xmlns="http://www.w3.org/2000/svg">
<path d="M57.3091 29.8936C54.765 28.4702 52.1884 27.0468 49.5791 25.6498C48.8615 25.2545 48.6332 24.4637 49.1224 23.8838C49.6116 23.3039 50.5902 23.1194 51.3077 23.5148C53.9496 24.9118 56.5589 26.3352 59.1029 27.7849C59.8205 28.1803 60.0163 28.9974 59.4944 29.5773C59.2009 29.9463 58.6789 30.1308 58.1897 30.1308C57.8635 30.1308 57.57 30.0517 57.2764 29.8936H57.3091ZM43.4146 19.3765C40.7727 18.0322 38.0982 16.6879 35.3911 15.3699C34.6409 15.0009 33.6625 15.1854 33.2058 15.818C32.7492 16.4243 33.0101 17.215 33.7603 17.5841C36.4348 18.902 39.1093 20.2199 41.7186 21.5642C41.9795 21.696 42.2731 21.7751 42.5666 21.7751C43.0885 21.7751 43.6104 21.5642 43.9039 21.1689C44.3605 20.5626 44.1648 19.7718 43.4146 19.4028V19.3765ZM102.319 58.4401C102.743 58.4401 103.167 58.3083 103.493 58.0183C104.081 57.4912 104.048 56.674 103.396 56.1996C101.08 54.5126 98.7315 52.8257 96.3505 51.1387C95.6982 50.6643 94.6871 50.7433 94.1 51.2705C93.5129 51.7977 93.6107 52.6148 94.2631 53.0893C96.644 54.7499 98.9598 56.4368 101.243 58.1238C101.536 58.361 101.928 58.4664 102.319 58.4664V58.4401ZM90.1535 290.713C87.5768 289.395 84.9676 288.025 82.3257 286.601C81.6081 286.206 80.6295 286.364 80.1077 286.944C79.6184 287.524 79.8142 288.314 80.5317 288.736C83.2062 290.186 85.8482 291.583 88.4249 292.901C88.6858 293.033 88.9793 293.085 89.2728 293.085C89.7947 293.085 90.3165 292.875 90.6101 292.479C91.0667 291.873 90.8384 291.082 90.1208 290.713H90.1535ZM27.2697 11.5479C24.5625 10.2827 21.8227 9.04385 19.0504 7.83134C18.2676 7.48868 17.3218 7.72591 16.8978 8.33216C16.4738 8.96477 16.7672 9.72917 17.5174 10.0718C20.2572 11.2843 22.9969 12.5232 25.6714 13.7621C25.9324 13.8675 26.1934 13.9202 26.4543 13.9202C27.0088 13.9202 27.5306 13.683 27.8241 13.2876C28.2481 12.6813 27.9872 11.8906 27.237 11.5479H27.2697ZM88.1313 48.5028C88.5879 48.5028 89.0446 48.3447 89.3381 48.0284C89.8926 47.4749 89.7947 46.6841 89.1424 46.236C86.7288 44.6281 84.3152 43.0202 81.8363 41.4387C81.1514 41.017 80.1403 41.096 79.6185 41.6496C79.064 42.2031 79.1945 43.0202 79.8795 43.442C82.3257 45.0235 84.7392 46.605 87.1528 48.2129C87.4463 48.4238 87.8051 48.5028 88.1639 48.5028H88.1313ZM67.1591 277.771C66.4742 277.349 65.4631 277.455 64.9412 278.008C64.4194 278.562 64.5498 279.379 65.2348 279.801C67.7788 281.382 70.3229 282.885 72.8017 284.334C73.0953 284.492 73.4214 284.572 73.715 284.572C74.2042 284.572 74.6935 284.387 74.987 284.044C75.5089 283.464 75.3458 282.674 74.6282 282.252C72.1494 280.802 69.638 279.3 67.1265 277.745L67.1591 277.771ZM72.443 38.8028C72.7365 38.9873 73.0626 39.0664 73.3888 39.0664C73.878 39.0664 74.3347 38.8819 74.6609 38.5656C75.1827 38.0121 75.0523 37.195 74.3673 36.7732C71.8885 35.2444 69.3444 33.742 66.8004 32.2395C66.1154 31.8178 65.1044 31.9496 64.5825 32.5295C64.0606 33.1094 64.2237 33.9001 64.9412 34.3219C67.4853 35.7979 69.9968 37.3004 72.443 38.8292V38.8028ZM52.5472 268.308C51.8622 267.86 50.8837 267.913 50.2966 268.466C49.7422 269.02 49.8074 269.811 50.4923 270.285C52.9385 271.946 55.3848 273.554 57.7657 275.109C58.0593 275.293 58.418 275.399 58.7442 275.399C59.2008 275.399 59.6575 275.241 59.9836 274.924C60.5381 274.371 60.4076 273.554 59.7226 273.132C57.3417 271.577 54.9281 269.995 52.4819 268.335L52.5472 268.308ZM213.344 203.598C214.095 206.075 214.78 208.527 215.399 210.952C215.562 211.558 216.215 211.98 216.965 211.98C217.063 211.98 217.193 211.98 217.291 211.98C218.139 211.848 218.693 211.162 218.53 210.477C217.911 208.026 217.226 205.522 216.476 203.018C216.28 202.332 215.432 201.911 214.551 202.069C213.703 202.227 213.181 202.939 213.377 203.624L213.344 203.598ZM217.095 218.385C217.617 220.889 218.041 223.393 218.433 225.844C218.53 226.503 219.215 226.978 219.998 226.978C220.063 226.978 220.129 226.978 220.194 226.978C221.074 226.899 221.694 226.266 221.564 225.554C221.205 223.05 220.748 220.546 220.226 217.989C220.096 217.304 219.248 216.803 218.4 216.935C217.519 217.04 216.965 217.699 217.095 218.411V218.385ZM10.7007 4.2202C7.92829 3.06042 5.12335 1.90063 2.28575 0.767207C1.50296 0.450903 0.557117 0.714491 0.165723 1.3471C-0.22567 1.97971 0.100495 2.74411 0.883281 3.06042C3.68827 4.19384 6.49324 5.32727 9.23299 6.48705C9.4613 6.59248 9.72224 6.61884 9.95055 6.61884C10.505 6.61884 11.0595 6.35526 11.353 5.93352C11.7444 5.30091 11.4509 4.5365 10.6681 4.19384L10.7007 4.2202ZM208.322 189.048C209.267 191.473 210.148 193.898 210.996 196.296C211.192 196.85 211.844 197.219 212.529 197.219C212.66 197.219 212.823 197.219 212.953 197.166C213.801 196.981 214.29 196.27 214.062 195.584C213.214 193.159 212.333 190.734 211.355 188.283C211.094 187.598 210.213 187.229 209.365 187.44C208.517 187.651 208.061 188.362 208.322 189.048ZM219.346 233.33C219.574 235.861 219.737 238.391 219.835 240.842C219.835 241.528 220.553 242.081 221.433 242.081H221.466C222.346 242.081 223.031 241.475 222.999 240.763C222.901 238.259 222.738 235.702 222.51 233.119C222.444 232.408 221.662 231.88 220.814 231.933C219.933 231.986 219.281 232.592 219.346 233.304V233.33ZM205.354 181.904C205.582 182.431 206.202 182.774 206.854 182.774C207.017 182.774 207.213 182.774 207.376 182.695C208.191 182.458 208.648 181.72 208.354 181.061C207.343 178.689 206.234 176.29 205.093 173.891C204.766 173.232 203.853 172.89 203.038 173.153C202.222 173.417 201.798 174.155 202.124 174.814C203.266 177.186 204.31 179.558 205.354 181.904ZM172.966 127.553C173.259 127.948 173.781 128.159 174.303 128.159C174.597 128.159 174.89 128.106 175.151 127.974C175.901 127.605 176.13 126.815 175.673 126.208C174.042 124.073 172.346 121.912 170.617 119.777C170.128 119.171 169.15 119.012 168.432 119.408C167.682 119.803 167.486 120.594 167.975 121.174C169.704 123.309 171.368 125.418 172.998 127.553H172.966ZM191.002 154.043C191.263 154.491 191.85 154.755 192.438 154.755C192.666 154.755 192.894 154.702 193.123 154.623C193.905 154.307 194.231 153.542 193.873 152.91C192.503 150.643 191.1 148.376 189.665 146.083C189.274 145.45 188.295 145.213 187.513 145.529C186.73 145.846 186.436 146.636 186.828 147.269C188.263 149.536 189.665 151.776 191.002 154.017V154.043ZM159.202 310.719C156.234 310.719 153.168 310.535 150.037 310.219C149.189 310.139 148.373 310.64 148.275 311.326C148.178 312.037 148.797 312.67 149.645 312.749C152.907 313.065 156.103 313.25 159.202 313.25C160.082 313.25 160.8 312.67 160.8 311.985C160.8 311.273 160.115 310.693 159.234 310.693L159.202 310.719ZM106.331 298.252C103.657 297.118 100.917 295.906 98.177 294.614C97.4269 294.272 96.4484 294.482 96.0244 295.089C95.6003 295.695 95.8613 296.486 96.6114 296.828C99.4164 298.146 102.189 299.359 104.896 300.519C105.124 300.624 105.385 300.65 105.613 300.65C106.168 300.65 106.722 300.387 107.016 299.965C107.407 299.332 107.114 298.568 106.331 298.225V298.252ZM193.318 301.968C190.905 303.471 188.361 304.789 185.653 305.922C184.871 306.238 184.577 307.029 184.968 307.662C185.262 308.11 185.816 308.347 186.371 308.347C186.632 308.347 186.86 308.294 187.089 308.215C189.926 307.029 192.698 305.606 195.243 304.024C195.927 303.603 196.058 302.785 195.536 302.232C194.982 301.678 194.003 301.573 193.318 301.995V301.968ZM200.755 168.514C201.57 168.25 201.961 167.486 201.603 166.827C200.396 164.508 199.156 162.162 197.852 159.842C197.493 159.209 196.547 158.919 195.764 159.209C194.949 159.499 194.623 160.264 194.982 160.896C196.286 163.216 197.526 165.509 198.7 167.829C198.961 168.33 199.548 168.62 200.167 168.62C200.363 168.62 200.592 168.593 200.787 168.514H200.755ZM185.197 139.388C183.696 137.174 182.131 134.959 180.533 132.745C180.109 132.139 179.13 131.928 178.38 132.297C177.63 132.666 177.369 133.431 177.826 134.037C179.424 136.225 180.957 138.412 182.424 140.627C182.718 141.048 183.24 141.286 183.827 141.286C184.088 141.286 184.349 141.233 184.577 141.127C185.36 140.785 185.621 139.994 185.197 139.388ZM215.693 277.033C214.845 276.796 213.964 277.138 213.671 277.824C212.627 280.222 211.453 282.516 210.148 284.703C209.757 285.336 210.083 286.1 210.898 286.417C211.127 286.496 211.355 286.548 211.583 286.548C212.17 286.548 212.725 286.285 213.018 285.837C214.388 283.57 215.595 281.171 216.671 278.694C216.965 278.035 216.541 277.297 215.693 277.059V277.033ZM221.498 247.142C220.553 247.116 219.9 247.669 219.868 248.381C219.77 250.938 219.607 253.442 219.313 255.867C219.248 256.579 219.868 257.185 220.748 257.264C220.781 257.264 220.846 257.264 220.879 257.264C221.694 257.264 222.379 256.763 222.444 256.104C222.738 253.626 222.901 251.043 222.999 248.46C222.999 247.748 222.346 247.168 221.466 247.142H221.498ZM177.271 308.663C174.433 309.375 171.433 309.902 168.367 310.245C167.486 310.35 166.899 310.983 166.997 311.695C167.095 312.327 167.78 312.802 168.563 312.802C168.628 312.802 168.693 312.802 168.791 312.802C172.02 312.433 175.216 311.879 178.217 311.141C179.065 310.93 179.522 310.219 179.261 309.533C179 308.848 178.119 308.479 177.271 308.69V308.663ZM219.998 262.246C219.15 262.14 218.302 262.615 218.172 263.3C217.682 265.804 217.03 268.282 216.313 270.628C216.084 271.313 216.606 271.998 217.454 272.183C217.585 272.183 217.715 272.209 217.845 272.209C218.563 272.209 219.215 271.814 219.378 271.234C220.129 268.809 220.748 266.279 221.27 263.695C221.401 262.984 220.814 262.325 219.965 262.219L219.998 262.246ZM207.832 290.739C207.115 290.344 206.104 290.502 205.647 291.108C203.951 293.191 202.059 295.168 200.07 296.934C199.483 297.461 199.515 298.278 200.167 298.753C200.461 298.963 200.852 299.095 201.244 299.095C201.668 299.095 202.092 298.963 202.418 298.673C204.538 296.802 206.528 294.72 208.322 292.532C208.811 291.952 208.615 291.135 207.865 290.766L207.832 290.739ZM130.173 77.6819C128.053 75.8105 125.901 73.9654 123.715 72.1203C123.096 71.6194 122.117 71.5931 121.465 72.0939C120.845 72.5947 120.813 73.3855 121.432 73.9126C123.618 75.7314 125.738 77.5765 127.825 79.4216C128.151 79.6852 128.575 79.8434 128.999 79.8434C129.391 79.8434 129.782 79.7379 130.076 79.5007C130.728 79.0262 130.76 78.2091 130.173 77.6819ZM123.291 304.446C120.486 303.55 117.616 302.575 114.746 301.52C113.963 301.23 113.017 301.52 112.626 302.153C112.267 302.785 112.626 303.55 113.409 303.84C116.344 304.92 119.28 305.922 122.15 306.845C122.346 306.897 122.541 306.924 122.737 306.924C123.357 306.924 123.976 306.607 124.205 306.107C124.531 305.448 124.107 304.71 123.291 304.446ZM115.985 68.8781C116.377 68.8781 116.801 68.7463 117.094 68.5091C117.714 68.0083 117.714 67.1912 117.094 66.6904C114.876 64.898 112.626 63.1319 110.343 61.3659C109.723 60.8651 108.712 60.8914 108.092 61.4186C107.473 61.9194 107.505 62.7366 108.158 63.2374C110.441 64.977 112.659 66.7431 114.876 68.5091C115.17 68.7463 115.594 68.8781 115.985 68.8781ZM159.985 107.177C159.463 106.597 158.484 106.466 157.767 106.887C157.049 107.309 156.886 108.1 157.408 108.68C159.234 110.736 161.061 112.792 162.789 114.848C163.083 115.217 163.605 115.401 164.094 115.401C164.42 115.401 164.714 115.322 165.007 115.164C165.725 114.769 165.921 113.952 165.399 113.372C163.638 111.289 161.811 109.207 159.952 107.151L159.985 107.177ZM153.103 103.118C153.429 103.118 153.787 103.039 154.048 102.855C154.733 102.433 154.896 101.616 154.342 101.062C152.45 99.0589 150.526 97.0556 148.536 95.0523C147.982 94.4988 147.003 94.4197 146.318 94.8415C145.633 95.2896 145.536 96.0803 146.057 96.6339C148.014 98.6108 149.939 100.614 151.798 102.591C152.124 102.934 152.581 103.092 153.07 103.092L153.103 103.118ZM141.002 308.901C138.099 308.373 135.098 307.714 132.065 306.95C131.217 306.739 130.336 307.108 130.076 307.794C129.815 308.479 130.271 309.191 131.119 309.401C134.218 310.192 137.316 310.851 140.317 311.405C140.448 311.405 140.545 311.431 140.676 311.431C141.393 311.431 142.046 311.036 142.209 310.429C142.404 309.744 141.85 309.059 141.002 308.901ZM136.468 83.3491C135.881 82.8219 134.87 82.7692 134.218 83.2436C133.565 83.7181 133.5 84.5088 134.087 85.0624C136.142 86.9602 138.197 88.8844 140.187 90.8086C140.513 91.1249 140.937 91.2567 141.393 91.2567C141.752 91.2567 142.111 91.1512 142.404 90.9667C143.089 90.5186 143.155 89.7015 142.6 89.148C140.611 87.1974 138.556 85.2733 136.468 83.3491Z" fill="white"/>
</svg>
