<svg width="36" height="32" viewBox="0 0 36 32" fill="none" xmlns="http://www.w3.org/2000/svg">
<path d="M27.9372 8.28507C31.6547 5.35218 35.6882 1.11781 35.0377 0.329595C34.3871 -0.458621 29.3127 2.47427 25.5952 5.4255C25.2606 5.70046 24.926 5.95709 24.61 6.21372C23.9595 6.10373 22.6026 5.88377 20.8739 5.60881C20.8925 5.60881 20.9297 5.60881 20.9483 5.60881L21.952 4.82059C22.0821 4.72894 22.0821 4.5273 21.952 4.39899L21.1713 3.4458C21.0598 3.29915 20.8739 3.26249 20.7438 3.37248L19.7401 4.16069C19.7401 4.16069 19.6657 4.27067 19.6471 4.344L18.4761 5.26053C17.0077 5.02223 15.4091 4.7656 13.8292 4.50897L14.8143 3.73909C14.9444 3.64743 14.9444 3.4458 14.8143 3.31748L14.0337 2.36429C13.9221 2.21765 13.7363 2.18099 13.6061 2.29097L12.6024 3.07919C12.6024 3.07919 12.5281 3.18917 12.5095 3.26249L11.3756 4.14236C7.3607 3.50079 3.99634 2.98753 3.88481 3.02419C3.606 3.11585 2.17475 4.32566 2.17475 4.32566C1.82158 4.60062 1.57995 4.85725 1.59854 4.89392C1.63571 4.93058 2.04464 4.65562 2.37921 4.39899L9.75851 7.05692C9.49828 7.29522 9.34957 7.51519 9.40534 7.58851C9.47969 7.68017 9.81427 7.51519 10.1488 7.24023L10.186 7.20357L11.6359 7.73516C11.3942 7.95512 11.2455 8.17509 11.3013 8.24842C11.3756 8.34007 11.7102 8.17509 12.0448 7.90013L13.3645 8.3584L14.1638 8.92665C13.8664 9.18328 13.6619 9.4399 13.7177 9.51323C13.792 9.60488 14.1266 9.43991 14.4612 9.16495H14.4798L16.0597 10.2648C15.7623 10.5214 15.5578 10.778 15.6322 10.8514C15.7065 10.943 16.0411 10.778 16.3757 10.5031L17.8255 11.5296C15.3534 13.5276 14.3868 14.3342 12.5466 15.8006C10.6879 17.2671 8.99641 18.8068 7.63952 20.1816C5.44618 19.8517 1.11525 19.1368 1.11525 19.1368L0 19.87L4.70267 23.4628C4.44244 23.8111 4.23797 24.0861 4.12645 24.306C3.40153 24.9659 2.97402 25.4059 3.02978 25.4792C3.08554 25.5525 3.606 25.2592 4.38668 24.7093C4.62832 24.636 4.96289 24.471 5.39041 24.2694L7.93692 29.6402L8.92206 28.742C8.92206 28.742 9.18229 24.1227 9.33099 22.0147C10.9295 21.0248 12.7511 19.8517 14.647 18.5502C16.9519 16.7355 17.9928 15.9656 20.1304 14.3158L20.8181 15.9289C20.465 16.2222 20.2419 16.4972 20.3163 16.5888C20.372 16.6622 20.6694 16.5338 21.004 16.2955L21.7661 18.0736H21.7475C21.3944 18.3669 21.1713 18.6602 21.2457 18.7335C21.3014 18.8068 21.6174 18.6785 21.9334 18.4402L22.3237 19.3201L22.5096 20.6949C22.1565 20.9699 21.9334 21.2631 22.0077 21.3548C22.0635 21.4281 22.3052 21.3365 22.584 21.1348L22.7884 22.6563H22.7513C22.3981 22.9496 22.175 23.2428 22.2494 23.3345C22.3052 23.4078 22.5654 23.2978 22.8442 23.0962L23.8479 30.7767C23.5319 31.0517 23.1602 31.3816 23.1788 31.4183C23.216 31.455 23.5133 31.2717 23.8665 30.9967C23.8665 30.9967 25.3907 29.8785 25.5208 29.6402C25.5766 29.5486 25.7996 26.1941 26.0599 22.198L27.1937 21.3181C27.1937 21.3181 27.3424 21.3181 27.3982 21.2815L28.4019 20.4933C28.532 20.4016 28.532 20.2 28.4019 20.0717L27.6212 19.1185C27.5097 18.9718 27.3238 18.9352 27.1937 19.0451L26.2086 19.815C26.3015 18.2386 26.3944 16.6622 26.4874 15.1774L27.6584 14.2609C27.6584 14.2609 27.8071 14.2609 27.8629 14.2242L28.8666 13.436C28.9967 13.3443 28.9967 13.1427 28.8666 13.0144L28.0859 12.0612C27.9744 11.9145 27.7885 11.8779 27.6584 11.9879L26.6547 12.7761C26.6547 12.7761 26.6547 12.8127 26.6175 12.8494C26.729 11.1447 26.8034 9.80652 26.8405 9.14662C27.1565 8.88999 27.4911 8.63336 27.8443 8.3584L27.9372 8.28507Z" fill="white"/>
</svg>
