<svg width="24" height="34" viewBox="0 0 24 34" fill="none" xmlns="http://www.w3.org/2000/svg">
<path d="M23.1258 11.7224C23.1258 5.43052 17.9521 0.328369 11.572 0.328369C5.19185 0.328369 0.0181729 5.43052 0.0181729 11.7224C0.0181729 11.7224 -0.503847 15.6806 4.06663 22.1097C6.11986 25.004 11.572 33.5953 11.572 33.5953C11.572 33.5953 17.024 25.004 19.0773 22.1097C23.6478 15.6806 23.1258 11.7224 23.1258 11.7224ZM11.572 20.2336C6.92028 20.2336 3.15024 16.5157 3.15024 11.9283C3.15024 7.34096 6.92028 3.62303 11.572 3.62303C16.2236 3.62303 19.9937 7.34096 19.9937 11.9283C19.9937 16.5157 16.2236 20.2336 11.572 20.2336Z" fill="white"/>
</svg>
