<svg width="323" height="282" viewBox="0 0 323 282" fill="none" xmlns="http://www.w3.org/2000/svg">
<path d="M56.8893 268.694C56.6808 269.139 56.2118 269.385 55.7427 269.385C55.5603 269.385 55.3778 269.361 55.2215 269.287C52.9021 268.275 50.6349 267.214 48.4198 266.104C47.7944 265.783 47.5598 265.068 47.8986 264.476C48.2374 263.883 48.9931 263.661 49.6186 263.982C51.7555 265.068 53.9967 266.129 56.2639 267.115C56.8893 267.387 57.176 268.102 56.8893 268.694ZM52.4591 82.1762C52.9021 81.6581 52.7979 80.8933 52.2506 80.4985C51.7034 80.0791 50.8955 80.1778 50.4786 80.6959C48.8889 82.5709 47.3513 84.446 45.8659 86.321C45.449 86.8392 45.5532 87.604 46.1005 87.9987C46.335 88.1714 46.5956 88.2454 46.8562 88.2454C47.2471 88.2454 47.6119 88.0727 47.8725 87.7767C49.358 85.9263 50.8955 84.0512 52.4591 82.2009V82.1762ZM43.2078 260.454C41.0969 259.196 39.0382 257.864 37.0837 256.507C36.5103 256.112 35.7285 256.235 35.3116 256.753C34.8946 257.296 35.0249 258.036 35.5722 258.431C37.5788 259.837 39.6897 261.194 41.8527 262.477C42.0611 262.601 42.2957 262.65 42.5302 262.65C42.9472 262.65 43.3641 262.453 43.5987 262.082C43.9635 261.515 43.8072 260.775 43.2078 260.429V260.454ZM34.5298 103.419C33.9565 103.048 33.1486 103.221 32.7838 103.764C31.3765 105.787 30.0214 107.785 28.7184 109.784C28.3535 110.351 28.536 111.091 29.1353 111.437C29.3438 111.56 29.5784 111.61 29.8129 111.61C30.2299 111.61 30.6468 111.412 30.8814 111.042C32.1844 109.068 33.5134 107.07 34.8946 105.072C35.2855 104.529 35.1292 103.764 34.5298 103.419ZM25.956 247.329C25.4609 246.86 24.653 246.835 24.1579 247.329C23.6627 247.798 23.6367 248.562 24.1579 249.031C25.9039 250.733 27.7542 252.386 29.6826 253.965C29.9172 254.163 30.2299 254.262 30.5165 254.262C30.8814 254.262 31.2202 254.113 31.4808 253.842C31.9498 253.349 31.8717 252.584 31.3505 252.14C29.4741 250.61 27.676 248.982 25.9821 247.329H25.956ZM70.0757 59.0341C68.3558 60.8105 66.6879 62.5622 65.0201 64.3139C64.551 64.8073 64.6031 65.5721 65.1243 66.0162C65.3589 66.2136 65.6716 66.3123 65.9582 66.3123C66.297 66.3123 66.6619 66.1642 66.8964 65.9175C68.5382 64.1658 70.206 62.4141 71.8999 60.6624C72.369 60.169 72.3429 59.4042 71.8217 58.9601C71.3006 58.516 70.4927 58.5407 70.0236 59.0341H70.0757ZM84.4869 275.8C82.0373 275.306 79.6137 274.739 77.2422 274.147C76.5647 273.95 75.8611 274.369 75.6786 274.986C75.4962 275.627 75.9132 276.293 76.5907 276.441C78.9883 277.058 81.464 277.601 83.9397 278.119C84.0179 278.119 84.1221 278.144 84.2003 278.144C84.7736 278.144 85.3209 277.749 85.4512 277.206C85.6075 276.565 85.1645 275.923 84.4869 275.775V275.8ZM61.8668 69.5689C61.3456 69.1495 60.5377 69.1989 60.0687 69.6923C58.4269 71.518 56.8111 73.3437 55.2215 75.1447C54.7785 75.6628 54.8566 76.403 55.3778 76.8471C55.6124 77.0198 55.899 77.1185 56.1857 77.1185C56.5505 77.1185 56.9154 76.9705 57.176 76.6744C58.7396 74.8734 60.3553 73.0723 61.9971 71.2466C62.4401 70.7532 62.388 69.9884 61.8668 69.5443V69.5689ZM92.8522 38.6553C92.3571 38.1865 91.5492 38.1618 91.0541 38.6306C89.2299 40.3083 87.4578 41.9613 85.6857 43.6143C85.1906 44.083 85.1906 44.8479 85.6857 45.3166C85.9202 45.5633 86.259 45.662 86.5717 45.662C86.8845 45.662 87.2233 45.5387 87.4578 45.3166C89.2038 43.6636 90.9759 42.0106 92.8001 40.3576C93.2952 39.8889 93.3213 39.124 92.8262 38.6553H92.8522ZM70.1278 272.173C67.7303 271.433 65.3849 270.644 63.1177 269.829C62.4662 269.583 61.7365 269.903 61.4759 270.52C61.2153 271.137 61.5541 271.828 62.2056 272.075C64.4989 272.913 66.8964 273.728 69.346 274.468C69.4763 274.517 69.6066 274.517 69.7369 274.517C70.2842 274.517 70.7794 274.196 70.9357 273.678C71.1442 273.037 70.7794 272.371 70.1278 272.173ZM77.0598 55.4814C78.7537 53.779 80.4737 52.0767 82.2458 50.3743C82.7409 49.9056 82.7149 49.1407 82.2458 48.672C81.7506 48.2032 80.9428 48.2279 80.4476 48.672C78.6756 50.399 76.9295 52.1014 75.2356 53.8037C74.7665 54.2971 74.7665 55.0373 75.2877 55.5061C75.5223 55.7281 75.835 55.8268 76.1477 55.8268C76.4865 55.8268 76.8253 55.7034 77.0598 55.4567V55.4814ZM1.27713 191.324C1.98075 191.324 2.52801 190.806 2.55407 190.14C2.55407 187.821 2.68437 185.477 2.86679 183.133C2.91891 182.467 2.39771 181.899 1.69409 181.85C1.01653 181.825 0.391084 182.294 0.338964 182.96C0.130483 185.353 0.0262432 187.771 0.000183105 190.14C0.000183105 190.806 0.547445 191.349 1.25107 191.349L1.27713 191.324ZM3.54435 204.104C3.17951 201.834 2.91891 199.49 2.76255 197.146C2.71043 196.48 2.11105 195.987 1.40743 196.036C0.703805 196.086 0.182604 196.653 0.234724 197.319C0.391084 199.712 0.677745 202.13 1.04259 204.474C1.14683 205.066 1.66803 205.51 2.29347 205.51C2.34559 205.51 2.42377 205.51 2.47589 205.51C3.17951 205.411 3.64859 204.795 3.54435 204.153V204.104ZM2.26741 177.162C2.26741 177.162 2.39771 177.162 2.44983 177.162C3.07527 177.162 3.62253 176.718 3.70071 176.126C4.03949 173.856 4.45646 171.513 4.9516 169.193C5.0819 168.552 4.63888 167.91 3.96131 167.787C3.28375 167.664 2.60619 168.083 2.47589 168.725C1.98075 171.093 1.53773 173.462 1.19895 175.781C1.09471 176.447 1.58985 177.039 2.26741 177.138V177.162ZM5.0819 163.223C5.0819 163.223 5.29038 163.272 5.39462 163.272C5.96794 163.272 6.46308 162.902 6.61944 162.384C7.21882 160.164 7.92245 157.869 8.67819 155.624C8.88667 154.982 8.52183 154.316 7.84427 154.119C7.1667 153.922 6.46308 154.267 6.2546 154.908C5.49886 157.203 4.79524 159.522 4.1698 161.792C3.98737 162.433 4.40434 163.099 5.0819 163.248V163.223ZM38.0479 99.7178C38.4388 99.7178 38.8558 99.5451 39.0903 99.1997C40.4975 97.2999 41.9308 95.3756 43.4163 93.4265C43.8332 92.8837 43.7029 92.1436 43.1296 91.7488C42.5563 91.3541 41.7745 91.4774 41.3575 92.0202C39.846 93.9693 38.4127 95.8937 37.0055 97.8427C36.6146 98.3855 36.7449 99.1257 37.3182 99.5204C37.5267 99.6684 37.7873 99.7425 38.0479 99.7425V99.7178ZM16.6526 236.498C16.2617 235.955 15.4799 235.807 14.8805 236.177C14.3072 236.547 14.1508 237.287 14.5417 237.855C15.949 239.829 17.4865 241.778 19.0762 243.628C19.3368 243.924 19.7016 244.072 20.0664 244.072C20.3531 244.072 20.6398 243.973 20.8743 243.801C21.4216 243.381 21.4997 242.616 21.0567 242.123C19.4931 240.322 18.0077 238.422 16.6526 236.523V236.498ZM15.0629 136.479C15.2453 136.553 15.4017 136.577 15.5841 136.577C16.0793 136.577 16.5223 136.306 16.7308 135.887C17.7471 133.789 18.8156 131.668 19.9361 129.521C20.2489 128.929 19.9883 128.214 19.3628 127.918C18.7374 127.622 17.9816 127.868 17.6689 128.46C16.5223 130.631 15.4277 132.778 14.4114 134.9C14.1247 135.492 14.4114 136.207 15.0368 136.479H15.0629ZM4.9516 210.987C4.79524 210.346 4.11767 209.926 3.44011 210.099C2.76255 210.247 2.34559 210.889 2.50195 211.53C3.07527 213.874 3.77889 216.218 4.5607 218.463C4.74312 218.956 5.23826 219.277 5.75946 219.277C5.88976 219.277 6.02006 219.277 6.15036 219.228C6.80186 219.03 7.1667 218.339 6.95822 217.723C6.20248 215.527 5.52492 213.257 4.9516 210.987ZM13.0823 140.796C12.4308 140.549 11.7012 140.846 11.4406 141.438C10.4763 143.683 9.56423 145.903 8.70425 148.099C8.46971 148.716 8.80849 149.407 9.45999 149.629C9.59029 149.678 9.74665 149.703 9.90301 149.703C10.4242 149.703 10.9194 149.407 11.1018 148.913C11.9357 146.742 12.8217 144.546 13.786 142.326C14.0466 141.709 13.7338 141.018 13.1084 140.772L13.0823 140.796ZM9.56423 224.261C9.27757 223.644 8.54789 223.372 7.89639 223.644C7.24488 223.915 6.95822 224.606 7.24488 225.223C8.26123 227.419 9.38181 229.59 10.6066 231.712C10.8412 232.106 11.2581 232.328 11.7272 232.328C11.9357 232.328 12.1442 232.279 12.3266 232.18C12.952 231.86 13.1605 231.144 12.8217 230.552C11.649 228.504 10.5545 226.407 9.56423 224.285V224.261ZM26.6075 115.458C26.0081 115.113 25.2263 115.31 24.8615 115.902C23.5846 118 22.3597 120.072 21.161 122.12C20.8222 122.712 21.0567 123.427 21.6822 123.748C21.8646 123.847 22.0731 123.896 22.2815 123.896C22.7246 123.896 23.1676 123.674 23.4021 123.279C24.5748 121.232 25.7997 119.184 27.0505 117.111C27.4154 116.544 27.2069 115.804 26.5815 115.483L26.6075 115.458ZM270.843 239.236C268.654 240.396 266.464 241.506 264.275 242.616C263.65 242.937 263.415 243.653 263.754 244.245C263.989 244.64 264.432 244.886 264.875 244.886C265.083 244.886 265.292 244.837 265.474 244.738C267.663 243.628 269.878 242.493 272.093 241.334C272.693 241.013 272.927 240.273 272.589 239.705C272.25 239.138 271.468 238.916 270.869 239.236H270.843ZM244.157 252.041C241.864 253.028 239.597 253.99 237.329 254.928C236.678 255.199 236.391 255.89 236.678 256.507C236.886 256.951 237.355 257.222 237.851 257.222C238.007 257.222 238.189 257.197 238.346 257.123C240.639 256.186 242.932 255.199 245.225 254.212C245.851 253.941 246.138 253.225 245.851 252.633C245.564 252.041 244.809 251.77 244.183 252.041H244.157ZM257.63 245.873C255.389 246.959 253.148 247.995 250.933 249.006C250.307 249.302 250.047 250.018 250.333 250.61C250.542 251.03 251.011 251.276 251.48 251.276C251.662 251.276 251.845 251.227 252.027 251.153C254.268 250.117 256.51 249.08 258.777 247.995C259.402 247.699 259.637 246.983 259.324 246.391C259.011 245.799 258.256 245.552 257.63 245.873ZM202.331 267.313C199.933 268.028 197.536 268.694 195.164 269.336C194.487 269.509 194.096 270.175 194.304 270.816C194.46 271.334 194.982 271.68 195.529 271.68C195.633 271.68 195.763 271.68 195.868 271.63C198.265 270.989 200.663 270.298 203.086 269.583C203.764 269.385 204.129 268.719 203.92 268.078C203.712 267.436 203.008 267.091 202.331 267.288V267.313ZM230.449 257.691C228.13 258.604 225.811 259.467 223.491 260.306C222.84 260.553 222.501 261.244 222.762 261.86C222.944 262.329 223.439 262.625 223.934 262.625C224.091 262.625 224.247 262.601 224.404 262.551C226.723 261.712 229.068 260.824 231.388 259.911C232.039 259.665 232.352 258.949 232.065 258.357C231.805 257.74 231.049 257.444 230.423 257.716L230.449 257.691ZM216.507 262.798C214.136 263.612 211.79 264.377 209.445 265.142C208.794 265.364 208.429 266.03 208.637 266.671C208.82 267.165 209.315 267.486 209.836 267.486C209.966 267.486 210.097 267.486 210.253 267.412C212.624 266.647 214.996 265.882 217.367 265.068C218.019 264.846 218.358 264.155 218.123 263.538C217.888 262.921 217.159 262.601 216.507 262.823V262.798ZM283.794 232.131C281.631 233.365 279.495 234.549 277.358 235.733C276.758 236.054 276.55 236.794 276.888 237.361C277.123 237.756 277.54 237.954 277.983 237.954C278.191 237.954 278.426 237.904 278.608 237.781C280.771 236.597 282.934 235.388 285.097 234.154C285.697 233.809 285.879 233.068 285.54 232.501C285.176 231.934 284.394 231.761 283.794 232.082V232.131ZM308.864 216.662C306.805 218.019 304.747 219.351 302.688 220.683C302.115 221.053 301.958 221.794 302.349 222.361C302.584 222.706 303.001 222.879 303.392 222.879C303.626 222.879 303.887 222.805 304.095 222.682C306.154 221.349 308.239 220.017 310.298 218.636C310.871 218.265 311.001 217.501 310.61 216.958C310.219 216.415 309.411 216.292 308.838 216.662H308.864ZM322.754 208.594C322.337 208.076 321.529 207.953 320.982 208.347C318.976 209.778 316.969 211.16 314.962 212.542C314.389 212.936 314.259 213.677 314.676 214.219C314.936 214.54 315.301 214.713 315.692 214.713C315.953 214.713 316.213 214.639 316.448 214.491C318.454 213.109 320.487 211.703 322.494 210.272C323.041 209.877 323.171 209.112 322.754 208.594ZM296.46 224.606C294.349 225.914 292.264 227.172 290.153 228.43C289.554 228.776 289.371 229.516 289.762 230.083C289.997 230.453 290.414 230.651 290.831 230.651C291.065 230.651 291.3 230.601 291.508 230.478C293.619 229.22 295.73 227.937 297.841 226.629C298.44 226.259 298.597 225.519 298.206 224.976C297.815 224.433 297.033 224.261 296.46 224.631V224.606ZM114.065 279.328C111.563 279.229 109.088 279.081 106.612 278.884C105.882 278.785 105.309 279.328 105.257 279.969C105.205 280.636 105.726 281.203 106.403 281.252C108.879 281.45 111.407 281.598 113.935 281.696H113.987C114.665 281.696 115.212 281.203 115.264 280.562C115.29 279.895 114.743 279.328 114.065 279.303V279.328ZM126.209 11.8618C126.756 11.4423 126.809 10.6775 126.365 10.1594C125.922 9.66598 125.115 9.59196 124.567 10.0114C122.639 11.5657 120.737 13.0954 118.86 14.625C118.339 15.0691 118.261 15.8092 118.73 16.3273C118.99 16.5987 119.329 16.7468 119.694 16.7468C119.981 16.7468 120.293 16.6481 120.528 16.4507C122.404 14.9211 124.307 13.3914 126.235 11.8371L126.209 11.8618ZM113.179 19.3126C111.277 20.8916 109.4 22.4706 107.576 24.0496C107.055 24.4937 107.003 25.2585 107.472 25.7519C107.733 26.0233 108.071 26.1467 108.41 26.1467C108.723 26.1467 109.009 26.048 109.27 25.8506C111.094 24.2716 112.971 22.7173 114.873 21.1383C115.394 20.6942 115.446 19.9541 114.977 19.436C114.508 18.9425 113.7 18.8932 113.179 19.3373V19.3126ZM187.945 271.186C185.522 271.778 183.098 272.346 180.701 272.889C180.023 273.037 179.606 273.678 179.763 274.32C179.893 274.862 180.414 275.257 180.987 275.257C181.092 275.257 181.17 275.257 181.274 275.232C183.698 274.69 186.147 274.122 188.597 273.53C189.275 273.357 189.691 272.716 189.509 272.075C189.327 271.433 188.623 271.038 187.972 271.211L187.945 271.186ZM128.971 279.427C127.043 279.476 125.141 279.501 123.264 279.501H121.518C120.867 279.402 120.241 280.019 120.241 280.685C120.241 281.351 120.789 281.894 121.492 281.894H123.264C125.167 281.894 127.095 281.894 129.05 281.82C129.753 281.82 130.301 281.252 130.274 280.586C130.274 279.92 129.701 279.427 128.971 279.427ZM99.2109 278.144C96.7091 277.848 94.2595 277.502 91.8359 277.132C91.1583 277.034 90.4808 277.453 90.3765 278.119C90.2462 278.785 90.7153 279.402 91.4189 279.501C93.8686 279.895 96.3703 280.241 98.8982 280.537C98.9503 280.537 99.0024 280.537 99.0545 280.537C99.68 280.537 100.227 280.093 100.305 279.476C100.384 278.81 99.8885 278.218 99.2109 278.144ZM102.025 28.8359C100.175 30.4642 98.3248 32.0926 96.5267 33.6962C96.0316 34.165 96.0055 34.9052 96.4746 35.3986C96.7352 35.6453 97.0479 35.7687 97.3867 35.7687C97.6994 35.7687 98.0121 35.67 98.2467 35.4479C100.045 33.8443 101.869 32.2159 103.719 30.6123C104.24 30.1682 104.267 29.4034 103.797 28.9099C103.328 28.4165 102.521 28.3918 101.999 28.8359H102.025ZM158.706 276.885C156.23 277.231 153.755 277.552 151.305 277.848C150.601 277.922 150.106 278.514 150.21 279.18C150.289 279.797 150.836 280.241 151.461 280.241C151.513 280.241 151.566 280.241 151.618 280.241C154.093 279.969 156.569 279.649 159.097 279.279C159.801 279.18 160.27 278.563 160.165 277.922C160.061 277.256 159.436 276.811 158.732 276.91L158.706 276.885ZM173.404 274.394C170.954 274.862 168.505 275.331 166.055 275.726C165.377 275.849 164.908 276.466 165.039 277.108C165.143 277.7 165.69 278.094 166.29 278.094C166.368 278.094 166.446 278.094 166.524 278.094C168.974 277.675 171.449 277.231 173.925 276.737C174.603 276.614 175.046 275.973 174.915 275.306C174.785 274.665 174.108 274.246 173.43 274.369L173.404 274.394ZM137.936 1.10489C137.493 0.586784 136.685 0.51276 136.164 0.932179C134.21 2.43715 132.255 3.94213 130.353 5.44711C129.805 5.86653 129.727 6.63135 130.196 7.14946C130.457 7.44552 130.822 7.59355 131.187 7.59355C131.473 7.59355 131.76 7.49486 131.994 7.32216C133.897 5.81718 135.825 4.33688 137.78 2.8319C138.327 2.41248 138.405 1.64766 137.962 1.15423L137.936 1.10489ZM143.852 278.588C141.35 278.81 138.874 278.983 136.399 279.106C135.695 279.155 135.174 279.723 135.2 280.364C135.252 281.006 135.799 281.499 136.451 281.499H136.529C139.005 281.351 141.532 281.178 144.06 280.956C144.764 280.907 145.259 280.315 145.207 279.649C145.155 278.983 144.529 278.538 143.826 278.563L143.852 278.588Z" fill="white"/>
</svg>
